<svg xmlns="http://www.w3.org/2000/svg" width="792.358" height="588.66" viewBox="0 0 792.358 588.66">
  <g id="new-project-background-top" transform="translate(0.681 0.846)">
    <rect id="Rectangle_10" width="791" height="587" fill="#101a5f" stroke="#707070" stroke-width="1"/>
    <path id="Path_1051" d="M.68.85C110.46,102.87,199.52,123.7,261.58,123.08c103.09-1.04,138.33-61.35,267.74-65.7,21.73-.73,81.69-1.08,145.03-34.71A282.453,282.453,0,0,0,709.06.85" transform="translate(-0.68 -0.85)" fill="rgba(0,0,0,0)" stroke="#b4002d" stroke-miterlimit="10" stroke-width="2"/>
    <path id="Path_1052" d="M128.47.85s12.6,30.05,82.38,49.44,94.44-14.88,185.33-18.41S530.69.85,530.69.85" transform="translate(-0.68 -0.85)" fill="#101a5f" stroke="#b4002d" stroke-miterlimit="10" stroke-width="2"/>
    <path id="Path_1053" d="M323.46,587.85c89.2-63.7,153.52-93.68,222.34-80.11s121.15,3.88,157.98,0,56.5-20.35,56.5-20.35l31.41-28.11" transform="translate(-0.68 -0.85)" fill="rgba(0,0,0,0)" stroke="#b4002d" stroke-miterlimit="10" stroke-width="2"/>
    <path id="Path_1054" d="M470.6,587.85s47.38-53.94,102.68-35.53,141.09,19.24,173.54,6.78c28.38-10.9,38.6-23.04,41.68-21.49" transform="translate(-0.68 -0.85)" fill="rgba(0,0,0,0)" stroke="#b4002d" stroke-miterlimit="10" stroke-width="2"/>
  </g>
</svg>
