<svg xmlns="http://www.w3.org/2000/svg" xmlns:xlink="http://www.w3.org/1999/xlink" width="199" height="97" viewBox="0 0 199 97">
  <defs>
    <clipPath id="clip-path">
      <path id="Rectangle_20" data-name="Rectangle 20" d="M8,0H191a8,8,0,0,1,8,8V97a0,0,0,0,1,0,0H0a0,0,0,0,1,0,0V8A8,8,0,0,1,8,0Z" transform="translate(918 250)" fill="#c61b1b"/>
    </clipPath>
  </defs>
  <g id="card_with_image" data-name="card with image" transform="translate(-918 -250)" clip-path="url(#clip-path)">
    <g id="undraw-web-trial" transform="translate(960.024 265.476)">
      <circle id="Ellipse_6" data-name="Ellipse 6" cx="5.978" cy="5.978" r="5.978" transform="translate(18.929 46.672)" fill="#f2f2f2"/>
      <circle id="Ellipse_7" data-name="Ellipse 7" cx="5.978" cy="5.978" r="5.978" transform="translate(19.901 45.797)" fill="#4573d1"/>
      <rect id="Rectangle_21" data-name="Rectangle 21" width="73.965" height="0.202" transform="translate(30.693 45.161)" fill="#3f3d56"/>
      <path id="Path_1055" data-name="Path 1055" d="M74.775,20.7H48.522v-.541h-11.9V20.7H10.256a1.776,1.776,0,0,0-1.776,1.776V58.423A1.776,1.776,0,0,0,10.256,60.2H74.775a1.776,1.776,0,0,0,1.776-1.776V22.474A1.776,1.776,0,0,0,74.775,20.7Z" transform="translate(-5.775 -18.816)" fill="#3f3d56"/>
      <rect id="Rectangle_22" data-name="Rectangle 22" width="63.309" height="35.713" transform="translate(5.086 5.021)" fill="#4573d1"/>
      <circle id="Ellipse_8" data-name="Ellipse 8" cx="0.649" cy="0.649" r="0.649" transform="translate(36.037 2.748)" fill="#6c63ff"/>
      <path id="Path_1056" data-name="Path 1056" d="M52.673,43.086H7.47V7.373Z" transform="translate(-2.384 -2.353)" opacity="0.1"/>
      <circle id="Ellipse_9" data-name="Ellipse 9" cx="6.085" cy="6.085" r="6.085" transform="translate(8.907 25.89)" fill="#f2f2f2"/>
      <rect id="Rectangle_23" data-name="Rectangle 23" width="5.914" height="1.236" transform="translate(51.458 24.281)" fill="#3f3d56"/>
      <rect id="Rectangle_24" data-name="Rectangle 24" width="20.213" height="0.53" transform="translate(44.309 14.66)" fill="#3f3d56"/>
      <rect id="Rectangle_25" data-name="Rectangle 25" width="20.213" height="0.53" transform="translate(44.309 16.337)" fill="#3f3d56"/>
      <rect id="Rectangle_26" data-name="Rectangle 26" width="20.213" height="0.53" transform="translate(44.309 18.014)" fill="#3f3d56"/>
      <rect id="Rectangle_27" data-name="Rectangle 27" width="20.213" height="0.53" transform="translate(44.309 19.691)" fill="#3f3d56"/>
      <rect id="Rectangle_28" data-name="Rectangle 28" width="20.213" height="0.53" transform="translate(44.309 21.368)" fill="#3f3d56"/>
      <rect id="Rectangle_29" data-name="Rectangle 29" width="2.471" height="2.471" transform="translate(62.05 5.745)" fill="#f2f2f2"/>
      <path id="Path_1057" data-name="Path 1057" d="M99.543,30.533h-3v-3h3Zm-2.871-.13h2.74v-2.74h-2.74Z" transform="translate(-33.875 -21.17)" fill="#3f3d56"/>
      <path id="Path_1058" data-name="Path 1058" d="M77.061,76.806H70.882V76.36a.088.088,0,0,0-.088-.088H68.676a.088.088,0,0,0-.088.088v.445H67.263V76.36a.088.088,0,0,0-.088-.088H65.057a.088.088,0,0,0-.088.088v.445H63.644V76.36a.088.088,0,0,0-.088-.088H61.438a.088.088,0,0,0-.088.088v.445H60.026V76.36a.088.088,0,0,0-.088-.088H57.819a.088.088,0,0,0-.088.088v.445H56.407V76.36a.088.088,0,0,0-.088-.088H54.2a.088.088,0,0,0-.088.088v.445H52.788V76.36a.088.088,0,0,0-.088-.088H50.581a.088.088,0,0,0-.088.088v.445H49.169V76.36a.088.088,0,0,0-.088-.088H32.487a.088.088,0,0,0-.088.088v.445H31.075V76.36a.088.088,0,0,0-.088-.088H28.868a.088.088,0,0,0-.088.088v.445H27.456V76.36a.088.088,0,0,0-.088-.088H25.249a.088.088,0,0,0-.088.088v.445H23.837V76.36a.088.088,0,0,0-.088-.088H21.631a.088.088,0,0,0-.088.088v.445H20.218V76.36a.088.088,0,0,0-.088-.088H18.012a.088.088,0,0,0-.088.088v.445H16.6V76.36a.088.088,0,0,0-.088-.088H14.393a.088.088,0,0,0-.088.088v.445H12.981V76.36a.088.088,0,0,0-.088-.088H10.774a.088.088,0,0,0-.088.088v.445H6.626a2.118,2.118,0,0,0-2.118,2.118v.958A2.118,2.118,0,0,0,6.626,82H77.061a2.118,2.118,0,0,0,2.118-2.118v-.958a2.118,2.118,0,0,0-2.118-2.118Z" transform="translate(-4.507 -36.722)" fill="#3f3d56"/>
      <path id="Path_1059" data-name="Path 1059" d="M25.095,63.542a7.669,7.669,0,1,1,7.669-7.669,7.669,7.669,0,0,1-7.669,7.669Zm0-15.136a7.467,7.467,0,1,0,7.467,7.467,7.467,7.467,0,0,0-7.467-7.467Z" transform="translate(-8.629 -27.765)" fill="#3f3d56"/>
      <rect id="Rectangle_30" data-name="Rectangle 30" width="25.731" height="0.202" transform="translate(59.149 3.284)" fill="#3f3d56"/>
      <rect id="Rectangle_31" data-name="Rectangle 31" width="73.965" height="0.202" transform="translate(40.986 56.563)" fill="#3f3d56"/>
      <rect id="Rectangle_32" data-name="Rectangle 32" width="25.731" height="0.202" transform="translate(19.442 65.847)" fill="#3f3d56"/>
      <rect id="Rectangle_33" data-name="Rectangle 33" width="2.825" height="2.825" transform="translate(47.528 55.499)" fill="#4573d1"/>
      <path id="Path_1060" data-name="Path 1060" d="M79.368,99.866H75.937V96.435h3.431Zm-3.282-.149h3.133V96.584H76.086Z" transform="translate(-27.3 -43.155)" fill="#3f3d56"/>
      <rect id="Rectangle_34" data-name="Rectangle 34" width="2.825" height="2.825" transform="translate(80.323 2.22)" fill="#4573d1"/>
      <path id="Path_1061" data-name="Path 1061" d="M127.531,21.619H124.1V18.188h3.431Zm-3.282-.149h3.133V18.337H124.25Z" transform="translate(-42.668 -18.188)" fill="#3f3d56"/>
      <rect id="Rectangle_35" data-name="Rectangle 35" width="2.825" height="2.825" transform="translate(108.779 55.499)" fill="#4573d1"/>
      <path id="Path_1062" data-name="Path 1062" d="M169.322,99.866h-3.431V96.435h3.431Zm-3.282-.149h3.133V96.584h-3.133Z" transform="translate(-56.003 -43.155)" fill="#3f3d56"/>
      <path id="Path_1063" data-name="Path 1063" d="M150.967,47.7h-.24V41.123a3.806,3.806,0,0,0-3.806-3.806H132.991a3.806,3.806,0,0,0-3.806,3.806V77.2A3.806,3.806,0,0,0,132.991,81h13.931a3.806,3.806,0,0,0,3.806-3.806V52.378h.24Z" transform="translate(-44.291 -24.292)" fill="#3f3d56"/>
      <path id="Path_1064" data-name="Path 1064" d="M150.409,41.9v36.02a2.842,2.842,0,0,1-2.842,2.843h-14a2.842,2.842,0,0,1-2.842-2.842V41.9a2.842,2.842,0,0,1,2.841-2.842h1.7a1.35,1.35,0,0,0,1.25,1.86H144.5a1.35,1.35,0,0,0,1.25-1.86h1.818a2.842,2.842,0,0,1,2.842,2.841Z" transform="translate(-44.783 -24.848)" fill="#4573d1"/>
      <rect id="Rectangle_36" data-name="Rectangle 36" width="4.17" height="1.236" transform="translate(93.701 37.963)" fill="#3f3d56"/>
      <rect id="Rectangle_37" data-name="Rectangle 37" width="14.252" height="0.53" transform="translate(88.66 28.342)" fill="#3f3d56"/>
      <rect id="Rectangle_38" data-name="Rectangle 38" width="14.252" height="0.53" transform="translate(88.66 30.019)" fill="#3f3d56"/>
      <rect id="Rectangle_39" data-name="Rectangle 39" width="14.252" height="0.53" transform="translate(88.66 31.696)" fill="#3f3d56"/>
      <rect id="Rectangle_40" data-name="Rectangle 40" width="14.252" height="0.53" transform="translate(88.66 33.374)" fill="#3f3d56"/>
      <rect id="Rectangle_41" data-name="Rectangle 41" width="14.252" height="0.53" transform="translate(88.66 35.051)" fill="#3f3d56"/>
      <rect id="Rectangle_42" data-name="Rectangle 42" width="2.471" height="2.471" transform="translate(93.812 21.31)" fill="#f2f2f2"/>
      <path id="Path_1065" data-name="Path 1065" d="M143.671,50.391v3h3v-3Zm2.871,2.871H143.8V50.521h2.741Z" transform="translate(-48.913 -28.463)" fill="#3f3d56"/>
      <path id="Path_1066" data-name="Path 1066" d="M150.409,83.2v3.847a2.842,2.842,0,0,1-2.842,2.843h-14a2.842,2.842,0,0,1-2.842-2.842V67.65l11.793,9.317.2.159,2.194,1.733.2.162Z" transform="translate(-44.783 -33.97)" opacity="0.1"/>
      <circle id="Ellipse_10" data-name="Ellipse 10" cx="4.427" cy="4.427" r="4.427" transform="translate(90.148 45.897)" fill="#f2f2f2"/>
      <path id="Path_1067" data-name="Path 1067" d="M47.841,106.96a8.779,8.779,0,1,1,8.779-8.779,8.779,8.779,0,0,1-8.779,8.779Zm0-17.356a8.577,8.577,0,1,0,8.577,8.577A8.577,8.577,0,0,0,47.841,89.6Z" transform="translate(-15.533 -40.911)" fill="#3f3d56"/>
      <path id="Path_1068" data-name="Path 1068" d="M142.717,91.906a5.55,5.55,0,1,1,5.55-5.55,5.55,5.55,0,0,1-5.55,5.55Zm0-10.9a5.348,5.348,0,1,0,5.348,5.348,5.348,5.348,0,0,0-5.348-5.348Z" transform="translate(-46.837 -38.169)" fill="#3f3d56"/>
    </g>
  </g>
</svg>
