<svg id="trash" xmlns="http://www.w3.org/2000/svg" width="18" height="19" viewBox="0 0 18 19">
  <path id="Path_1347" data-name="Path 1347" d="M17,5V4a2,2,0,0,0-2-2H9A2,2,0,0,0,7,4V5H4A1,1,0,0,0,4,7H5V18a3,3,0,0,0,3,3h8a3,3,0,0,0,3-3V7h1a1,1,0,0,0,0-2ZM15,4H9V5h6Zm2,3H7V18a1,1,0,0,0,1,1h8a1,1,0,0,0,1-1Z" transform="translate(-3 -2)" fill-rule="evenodd"/>
  <path id="Path_1348" data-name="Path 1348" d="M9,9h2v8H9Z" transform="translate(-3 -2)"/>
  <path id="Path_1349" data-name="Path 1349" d="M13,9h2v8H13Z" transform="translate(-3 -2)"/>
</svg>
